<?xml version="1.0" encoding="UTF-8" standalone="no"?>
<!-- Generator: Adobe Illustrator 16.0.0, SVG Export Plug-In . SVG Version: 6.00 Build 0)  -->

<svg
   version="1.1"
   id="Capa_1"
   x="0px"
   y="0px"
   width="334.983px"
   height="334.983px"
   viewBox="0 0 334.983 334.983"
   style="enable-background:new 0 0 334.983 334.983;"
   xml:space="preserve"
   sodipodi:docname="Cludo.svg"
   inkscape:version="1.1.2 (0a00cf5339, 2022-02-04)"
   xmlns:inkscape="http://www.inkscape.org/namespaces/inkscape"
   xmlns:sodipodi="http://sodipodi.sourceforge.net/DTD/sodipodi-0.dtd"
   xmlns:xlink="http://www.w3.org/1999/xlink"
   xmlns="http://www.w3.org/2000/svg"
   xmlns:svg="http://www.w3.org/2000/svg"><defs
   id="defs45"><linearGradient
     inkscape:collect="always"
     id="linearGradient4876"><stop
       style="stop-color:#71391a;stop-opacity:1;"
       offset="0"
       id="stop4872" /><stop
       style="stop-color:#71391a;stop-opacity:0;"
       offset="1"
       id="stop4874" /></linearGradient><linearGradient
     inkscape:collect="always"
     id="linearGradient4868"><stop
       style="stop-color:#656565;stop-opacity:1;"
       offset="0"
       id="stop4864" /><stop
       style="stop-color:#656565;stop-opacity:0;"
       offset="1"
       id="stop4866" /></linearGradient><linearGradient
     id="linearGradient4842"
     inkscape:swatch="solid"><stop
       style="stop-color:#656565;stop-opacity:1;"
       offset="0"
       id="stop4840" /></linearGradient><linearGradient
     inkscape:collect="always"
     xlink:href="#linearGradient4868"
     id="linearGradient4870"
     x1="0.009"
     y1="167.4915"
     x2="334.974"
     y2="167.4915"
     gradientUnits="userSpaceOnUse" /><linearGradient
     inkscape:collect="always"
     xlink:href="#linearGradient4876"
     id="linearGradient4880"
     x1="0.001"
     y1="15.12"
     x2="30.238501"
     y2="15.12"
     gradientUnits="userSpaceOnUse" /></defs><sodipodi:namedview
   id="namedview43"
   pagecolor="#ffffff"
   bordercolor="#666666"
   borderopacity="1.0"
   inkscape:pageshadow="2"
   inkscape:pageopacity="0.0"
   inkscape:pagecheckerboard="0"
   showgrid="false"
   inkscape:zoom="2.3195207"
   inkscape:cx="167.4915"
   inkscape:cy="167.27594"
   inkscape:window-width="1920"
   inkscape:window-height="1019"
   inkscape:window-x="0"
   inkscape:window-y="29"
   inkscape:window-maximized="1"
   inkscape:current-layer="Capa_1" />
<g
   id="g10"
   transform="matrix(0.47182204,0,0,0.47182204,52.776328,86.768885)"
   style="fill:url(#linearGradient4870);fill-opacity:1;fill-rule:evenodd">
	<g
   id="g8"
   style="fill:url(#linearGradient4870);fill-opacity:1;fill-rule:evenodd">
		<g
   id="g6"
   style="fill:url(#linearGradient4870);fill-opacity:1;fill-rule:evenodd">
			<g
   id="g4"
   style="fill:url(#linearGradient4870);fill-opacity:1;fill-rule:evenodd">
				<path
   d="M 167.474,334.983 0.009,167.498 64.351,103.157 c 3.128,-3.11 6.155,-4.63 9.265,-4.63 7.716,0 10.238,7.881 12.445,14.823 1.564,4.87 3.321,10.349 6.26,13.751 l 0.685,0.652 c 8.091,8.067 22.151,8.073 30.195,0.006 4.047,-4.041 6.278,-9.386 6.278,-15.078 0,-5.71 -2.225,-11.073 -6.26,-15.12 l -0.646,-0.634 c -3.45,-3.074 -8.803,-4.975 -13.571,-6.659 -6.56,-2.317 -12.769,-4.513 -14.147,-10.613 -1.291,-5.692 3.026,-10.028 4.459,-11.46 L 167.479,0 232.346,64.873 c 0.09,0.093 0.192,0.183 0.276,0.27 0.816,-1.795 1.753,-4.44 2.498,-6.56 2.521,-7.116 5.668,-15.982 12.058,-22.389 l 0.582,-0.552 c 7.512,-7.245 17.36,-11.223 27.796,-11.223 10.713,0 20.789,4.177 28.379,11.758 7.554,7.557 11.733,17.615 11.733,28.315 -0.018,9.758 -3.459,18.981 -9.823,26.28 V 90.9 l -1.916,2.023 c -6.425,6.438 -15.673,9.4 -23.089,11.793 -2.06,0.664 -4.605,1.474 -6.425,2.219 l 60.559,60.562 -65.44,65.464 c -2.228,2.21 -5.698,5.164 -10.202,5.164 v 0 c -8.299,0 -11.055,-8.587 -13.703,-16.892 -1.897,-5.951 -4.035,-12.616 -7.686,-16.892 l -0.997,-0.919 c -5.074,-5.098 -11.865,-7.908 -19.077,-7.908 -7.194,0 -13.974,2.811 -19.077,7.908 -10.509,10.515 -10.509,27.629 0,38.154 4.371,4.372 11.379,6.84 17.558,9.038 7.872,2.78 14.676,5.176 16.177,11.793 1.394,6.137 -3.44,10.965 -5.032,12.562 z"
   id="path2"
   style="fill:url(#linearGradient4870);fill-opacity:1;fill-rule:evenodd" />
			</g>
		</g>
	</g>
</g>
<g
   id="g12">
</g>
<g
   id="g14">
</g>
<g
   id="g16">
</g>
<g
   id="g18">
</g>
<g
   id="g20">
</g>
<g
   id="g22">
</g>
<g
   id="g24">
</g>
<g
   id="g26">
</g>
<g
   id="g28">
</g>
<g
   id="g30">
</g>
<g
   id="g32">
</g>
<g
   id="g34">
</g>
<g
   id="g36">
</g>
<g
   id="g38">
</g>
<g
   id="g40">
</g>
<g
   id="g103"
   transform="matrix(9.0402977,0,0,9.0402977,40.084365,39.111254)"
   style="fill:#71391a;fill-opacity:1"><g
     id="g49"
     style="fill:#71391a;fill-opacity:1">
	<path
   d="m 20.194,3.46 c -4.613,-4.613 -12.121,-4.613 -16.734,0 -4.612,4.614 -4.612,12.121 0,16.735 4.108,4.107 10.506,4.547 15.116,1.34 0.097,0.459 0.319,0.897 0.676,1.254 l 6.718,6.718 c 0.979,0.977 2.561,0.977 3.535,0 0.978,-0.978 0.978,-2.56 0,-3.535 l -6.718,-6.72 C 22.432,18.898 21.993,18.675 21.534,18.578 24.743,13.967 24.303,7.57 20.194,3.46 Z m -2.121,14.614 c -3.444,3.444 -9.049,3.444 -12.492,0 -3.442,-3.444 -3.442,-9.048 0,-12.492 3.443,-3.443 9.048,-3.443 12.492,0 3.444,3.444 3.444,9.048 0,12.492 z"
   id="path47"
   style="fill:#71391a;fill-opacity:1" />
</g><g
     id="g51"
     style="fill:#71391a;fill-opacity:1">
</g><g
     id="g53"
     style="fill:#71391a;fill-opacity:1">
</g><g
     id="g55"
     style="fill:#71391a;fill-opacity:1">
</g><g
     id="g57"
     style="fill:#71391a;fill-opacity:1">
</g><g
     id="g59"
     style="fill:#71391a;fill-opacity:1">
</g><g
     id="g61"
     style="fill:#71391a;fill-opacity:1">
</g><g
     id="g63"
     style="fill:#71391a;fill-opacity:1">
</g><g
     id="g65"
     style="fill:#71391a;fill-opacity:1">
</g><g
     id="g67"
     style="fill:#71391a;fill-opacity:1">
</g><g
     id="g69"
     style="fill:#71391a;fill-opacity:1">
</g><g
     id="g71"
     style="fill:#71391a;fill-opacity:1">
</g><g
     id="g73"
     style="fill:#71391a;fill-opacity:1">
</g><g
     id="g75"
     style="fill:#71391a;fill-opacity:1">
</g><g
     id="g77"
     style="fill:#71391a;fill-opacity:1">
</g><g
     id="g79"
     style="fill:#71391a;fill-opacity:1">
</g></g></svg>
